<svg xmlns="http://www.w3.org/2000/svg" viewBox="0 0 512 512" width="512" height="512" role="img" aria-label="crane app icon">
  <defs>
    <clipPath id="squircleClip">
      <path d="M 256 0 C 379.789 0 408.785 0 433.215 12.4575 C 463.643 30.9226 481.077 48.3573 499.543 78.7847 C 512 103.215 512 132.211 512 256 C 512 379.789 512 408.785 499.543 433.215 C 481.077 463.643 463.643 481.077 433.215 499.543 C 408.785 512 379.789 512 256 512 C 132.211 512 103.215 512 78.7847 499.543 C 48.3573 481.077 30.9226 463.643 12.4575 433.215 C 0 408.785 0 379.789 0 256 C 0 132.211 0 103.215 12.4575 78.7847 C 30.9226 48.3573 48.3573 30.9226 78.7847 12.4575 C 103.215 0 132.211 0 256 0 Z"/>
    </clipPath>
  </defs>

  <g id="craneAppIcon" clip-path="url(#squircleClip)">
    <rect id="backgroundFill" width="512" height="512" fill="#2400FF"/>

    <g id="craneWordmark" fill="#F7E6C8">
      <path id="capitalC" d="M 281.6 221.9 A 115 115 0 1 0 281.6 308.1 L 237.1 290.1 A 67 67 0 1 1 237.1 239.9 Z"/>

      <path id="lowercaseR" d="M 325 215 L 372 215 C 400 215 414 230 414 252 C 414 270 388 270 372 270 L 372 380 L 325 380 Z"/>

      <circle id="periodDot" cx="448" cy="366" r="14"/>
    </g>
  </g>
</svg>
