<?xml version="1.0" encoding="UTF-8"?>
<svg xmlns="http://www.w3.org/2000/svg" viewBox="0 0 512 512" width="512" height="512" role="img" aria-label="crane logo direction E app icon brand palette">
  <defs>
    <clipPath id="squircle-e-brand">
      <path d="M256 0c123.789 0 152.785 0 177.215 12.457 30.428 18.466 47.862 35.9 66.328 66.328C512 103.215 512 132.211 512 256s0 152.785-12.457 177.215c-18.466 30.428-35.9 47.862-66.328 66.328C408.785 512 379.789 512 256 512S103.215 512 78.785 499.543c-30.428-18.466-47.862-35.9-66.328-66.328C0 408.785 0 379.789 0 256S0 103.215 12.457 78.785c18.466-30.428 35.9-47.862 66.328-66.328C103.215 0 132.211 0 256 0z"/>
    </clipPath>
  </defs>
  <g clip-path="url(#squircle-e-brand)">
    <rect width="512" height="512" fill="#2400FF"/>
    <g id="birdProfileMark" transform="translate(256 264) scale(0.92) translate(-256 -256)">
      <path id="headBeak" fill="none" stroke="#F7E6C8" stroke-width="28" stroke-linecap="round" stroke-linejoin="round" d="M242 278 C228 218 242 158 296 142 C348 128 396 152 404 192 C410 218 390 244 360 256 C336 266 308 274 282 280"/>
      <path id="neckOuter" fill="none" stroke="#F7E6C8" stroke-width="28" stroke-linecap="round" d="M252 280 C246 318 240 358 234 402"/>
      <path id="neckInner" fill="none" stroke="#F7E6C8" stroke-width="28" stroke-linecap="round" d="M276 284 C270 322 264 362 258 406"/>
      <circle id="eye" cx="324" cy="172" r="15" fill="#F7E6C8"/>
    </g>
  </g>
</svg>
